HIERARCHY
ROOT Hips
{
	OFFSET 0.000000 0.000000 0.000000
	CHANNELS 6 Xposition Yposition Zposition Xrotation Yrotation Zrotation
	JOINT C_ctrl
	{
		OFFSET 0.000000 35.040482 -0.000011
		CHANNELS 3 Xrotation Yrotation Zrotation
		JOINT Bip01
		{
			OFFSET -41.537640 41.789009 -0.000007
			CHANNELS 3 Xrotation Yrotation Zrotation
			JOINT Bip01_Pelvis
			{
				OFFSET -2.462887 0.000000 0.000000
				CHANNELS 3 Xrotation Yrotation Zrotation
				JOINT BN_Tail_01
				{
					OFFSET -11.399368 7.351341 -0.000013
					CHANNELS 3 Xrotation Yrotation Zrotation
					JOINT BN_Tail_02
					{
						OFFSET -11.365196 -0.343025 0.000012
						CHANNELS 3 Xrotation Yrotation Zrotation
						JOINT BN_Tail_03
						{
							OFFSET -15.076256 -0.454979 0.000017
							CHANNELS 3 Xrotation Yrotation Zrotation
							JOINT BN_Tail_04
							{
								OFFSET -17.395691 -0.525002 0.000016
								CHANNELS 3 Xrotation Yrotation Zrotation
								JOINT BN_Tail_05
								{
									OFFSET -16.699837 -0.504005 0.000016
									CHANNELS 3 Xrotation Yrotation Zrotation
									End Site
									{
										OFFSET 0.503998 -16.699829 0.000067
									}
								}
							}
						}
					}
				}
				JOINT Bip01_Spine
				{
					OFFSET 8.297798 5.916809 -0.000020
					CHANNELS 3 Xrotation Yrotation Zrotation
					JOINT Bip01_R_Thigh
					{
						OFFSET -8.297779 -5.916794 10.541781
						CHANNELS 3 Xrotation Yrotation Zrotation
						JOINT Bip01_R_Calf
						{
							OFFSET 5.631542 -22.906792 0.862690
							CHANNELS 3 Xrotation Yrotation Zrotation
							JOINT Bip01_R_HorseLink
							{
								OFFSET -16.984341 -19.231926 -3.555767
								CHANNELS 3 Xrotation Yrotation Zrotation
								JOINT Bip01_R_Foot
								{
									OFFSET 4.290367 -24.783146 0.578056
									CHANNELS 3 Xrotation Yrotation Zrotation
									JOINT Bip01_R_Toe0
									{
										OFFSET 3.561211 -5.815116 0.760802
										CHANNELS 3 Xrotation Yrotation Zrotation
										JOINT Bip01_R_Toe0Nub
										{
											OFFSET 16.135469 0.002017 1.534789
											CHANNELS 3 Xrotation Yrotation Zrotation
											End Site
											{
												OFFSET -0.000002 16.208284 -0.000056
											}
										}
									}
								}
							}
						}
					}
					JOINT Bip01_L_Thigh
					{
						OFFSET -8.297813 -5.916832 -10.541739
						CHANNELS 3 Xrotation Yrotation Zrotation
						JOINT Bip01_L_Calf
						{
							OFFSET 5.631535 -22.906792 -0.862625
							CHANNELS 3 Xrotation Yrotation Zrotation
							JOINT Bip01_L_HorseLink
							{
								OFFSET -16.984318 -19.231949 3.555875
								CHANNELS 3 Xrotation Yrotation Zrotation
								JOINT Bip01_L_Foot
								{
									OFFSET 4.290367 -24.783169 -0.577965
									CHANNELS 3 Xrotation Yrotation Zrotation
									JOINT Bip01_L_Toe0
									{
										OFFSET 3.561245 -5.815111 -0.760799
										CHANNELS 3 Xrotation Yrotation Zrotation
										JOINT Bip01_L_Toe0Nub
										{
											OFFSET 6.574303 -0.000005 -1.538561
											CHANNELS 3 Xrotation Yrotation Zrotation
											End Site
											{
												OFFSET 0.000004 -6.751935 0.000023
											}
										}
									}
								}
							}
						}
					}
					JOINT Bip01_Spine1
					{
						OFFSET 20.556803 -4.626213 -0.000025
						CHANNELS 3 Xrotation Yrotation Zrotation
						JOINT Saddle
						{
							OFFSET 17.608810 18.174690 -0.000143
							CHANNELS 3 Xrotation Yrotation Zrotation
							End Site
							{
								OFFSET -0.000063 -0.000061 -22.448387
							}
						}
						JOINT BN_center
						{
							OFFSET 10.743275 -13.417107 -0.172041
							CHANNELS 3 Xrotation Yrotation Zrotation
							End Site
							{
								OFFSET 22.434088 0.553078 -0.579614
							}
						}
						JOINT Bip01_Spine2
						{
							OFFSET 24.765072 -2.054115 -0.000032
							CHANNELS 3 Xrotation Yrotation Zrotation
							JOINT Handle
							{
								OFFSET 63.735676 16.430748 -16.052464
								CHANNELS 3 Xrotation Yrotation Zrotation
								JOINT IK_Chain01
								{
									OFFSET -4.713058 -6.020439 0.185448
									CHANNELS 3 Xrotation Yrotation Zrotation
									End Site
									{
										OFFSET -0.000023 -0.000023 -7.648071
									}
								}
							}
							JOINT BN_hair04_01
							{
								OFFSET 1.987491 16.256981 -2.049672
								CHANNELS 3 Xrotation Yrotation Zrotation
								JOINT BN_hair04_02
								{
									OFFSET -1.318762 -3.831451 -6.174704
									CHANNELS 3 Xrotation Yrotation Zrotation
									JOINT BN_hair04_03
									{
										OFFSET -0.827490 -5.886627 -5.656666
										CHANNELS 3 Xrotation Yrotation Zrotation
										End Site
										{
											OFFSET -2.658262 5.010620 -5.929780
										}
									}
								}
							}
							JOINT Bip01_Neck
							{
								OFFSET 25.574577 9.433014 -0.000084
								CHANNELS 3 Xrotation Yrotation Zrotation
								JOINT Bip01_R_Clavicle
								{
									OFFSET -16.535652 0.011192 6.705692
									CHANNELS 3 Xrotation Yrotation Zrotation
									JOINT Bip01_R_UpperArm
									{
										OFFSET 20.272621 -12.959984 2.510816
										CHANNELS 3 Xrotation Yrotation Zrotation
										JOINT Bip01_R_Forearm
										{
											OFFSET -13.633509 -15.503704 -0.653585
											CHANNELS 3 Xrotation Yrotation Zrotation
											JOINT Bip01_R_Hand
											{
												OFFSET 2.580030 -27.804676 -1.136415
												CHANNELS 3 Xrotation Yrotation Zrotation
												JOINT Bip01_R_Finger0
												{
													OFFSET -0.281744 -19.659061 -0.398649
													CHANNELS 3 Xrotation Yrotation Zrotation
													JOINT Bip01_Xtra02
													{
														OFFSET 4.152210 -5.712314 0.433813
														CHANNELS 3 Xrotation Yrotation Zrotation
														JOINT Bip01_Xtra02Nub
														{
															OFFSET 15.457960 0.041654 0.507982
															CHANNELS 3 Xrotation Yrotation Zrotation
															End Site
															{
																OFFSET -15.421730 -0.157725 -1.163459
															}
														}
													}
													JOINT Bip01_R_Finger0Nub
													{
														OFFSET 8.362326 -9.718440 -0.143142
														CHANNELS 3 Xrotation Yrotation Zrotation
														End Site
														{
															OFFSET -1.213036 -0.198171 9.872291
														}
													}
												}
											}
										}
									}
								}
								JOINT Bip01_L_Clavicle
								{
									OFFSET -16.535673 0.011162 -6.705583
									CHANNELS 3 Xrotation Yrotation Zrotation
									JOINT Bip01_L_UpperArm
									{
										OFFSET 20.272615 -12.959999 -2.510836
										CHANNELS 3 Xrotation Yrotation Zrotation
										JOINT Bip01_L_Forearm
										{
											OFFSET -13.633495 -15.503681 0.653678
											CHANNELS 3 Xrotation Yrotation Zrotation
											JOINT Bip01_L_Hand
											{
												OFFSET 2.579988 -27.804686 1.136487
												CHANNELS 3 Xrotation Yrotation Zrotation
												JOINT Bip01_L_Finger0
												{
													OFFSET -0.281765 -19.659058 0.398696
													CHANNELS 3 Xrotation Yrotation Zrotation
													JOINT Bip01_Xtra01
													{
														OFFSET 4.083549 -5.738758 -0.666714
														CHANNELS 3 Xrotation Yrotation Zrotation
														JOINT Bip01_Xtra01Nub
														{
															OFFSET 6.758158 -0.395525 -0.023239
															CHANNELS 3 Xrotation Yrotation Zrotation
															End Site
															{
																OFFSET 6.764923 -0.254147 -0.029908
															}
														}
													}
													JOINT Bip01_L_Finger0Nub
													{
														OFFSET -0.012636 -9.629153 0.045740
														CHANNELS 3 Xrotation Yrotation Zrotation
														End Site
														{
															OFFSET 0.988407 0.004791 8.293357
														}
													}
												}
											}
										}
									}
								}
								JOINT BN_hair03_01
								{
									OFFSET -5.894140 16.270622 -2.498433
									CHANNELS 3 Xrotation Yrotation Zrotation
									JOINT BN_hair03_02
									{
										OFFSET -0.189278 -7.800507 -6.219162
										CHANNELS 3 Xrotation Yrotation Zrotation
										JOINT BN_hair03_03
										{
											OFFSET 0.612345 -10.844475 -3.370718
											CHANNELS 3 Xrotation Yrotation Zrotation
											End Site
											{
												OFFSET -2.273296 2.862007 -10.769416
											}
										}
									}
								}
								JOINT Bip01_Neck1
								{
									OFFSET 9.383755 11.908699 -0.000007
									CHANNELS 3 Xrotation Yrotation Zrotation
									JOINT BN_hair02_01
									{
										OFFSET 9.126320 18.808022 -1.420810
										CHANNELS 3 Xrotation Yrotation Zrotation
										JOINT BN_hair02_02
										{
											OFFSET 0.393478 -5.181091 -5.248574
											CHANNELS 3 Xrotation Yrotation Zrotation
											JOINT BN_hair02_03
											{
												OFFSET 0.762280 -8.167076 -0.230047
												CHANNELS 3 Xrotation Yrotation Zrotation
												End Site
												{
													OFFSET -0.025837 -1.251419 -8.109770
												}
											}
										}
									}
									JOINT Bip01_Head
									{
										OFFSET 14.266129 10.475403 -0.000008
										CHANNELS 3 Xrotation Yrotation Zrotation
										JOINT BN_Reins_01
										{
											OFFSET 18.547455 -15.740112 -0.000035
											CHANNELS 3 Xrotation Yrotation Zrotation
											JOINT BN_Reins_02
											{
												OFFSET -5.372810 -5.884506 0.000028
												CHANNELS 3 Xrotation Yrotation Zrotation
												JOINT BN_Reins_03
												{
													OFFSET -6.395866 -15.947449 0.000070
													CHANNELS 3 Xrotation Yrotation Zrotation
													JOINT BN_Halter_R_01
													{
														OFFSET -1.234055 -3.096100 7.096737
														CHANNELS 3 Xrotation Yrotation Zrotation
														End Site
														{
															OFFSET 10.514435 -4.176861 -0.000004
														}
													}
													JOINT BN_Halter_L_01
													{
														OFFSET -1.234062 -3.096146 -7.096726
														CHANNELS 3 Xrotation Yrotation Zrotation
														End Site
														{
															OFFSET -10.514435 4.176865 -0.000000
														}
													}
													JOINT BN_Reins_04
													{
														OFFSET -6.737644 -16.971684 0.000074
														CHANNELS 3 Xrotation Yrotation Zrotation
														JOINT BN_Halter_R_02
														{
															OFFSET -4.688869 -11.781956 7.096771
															CHANNELS 3 Xrotation Yrotation Zrotation
															End Site
															{
																OFFSET 14.669624 -5.827511 -0.000006
															}
														}
														JOINT BN_Halter_L_02
														{
															OFFSET -4.688892 -11.782017 -7.096693
															CHANNELS 3 Xrotation Yrotation Zrotation
															End Site
															{
																OFFSET -14.669624 5.827507 -0.000002
															}
														}
														JOINT BN_Reins_05
														{
															OFFSET -6.822578 -16.971161 0.000074
															CHANNELS 3 Xrotation Yrotation Zrotation
															JOINT BN_Reins_06
															{
																OFFSET -6.140354 -15.095148 0.000066
																CHANNELS 3 Xrotation Yrotation Zrotation
																End Site
																{
																	OFFSET -15.095150 6.140352 -0.000002
																}
															}
														}
													}
												}
											}
										}
										JOINT BN_hair01_01
										{
											OFFSET 8.957344 8.870956 0.112121
											CHANNELS 3 Xrotation Yrotation Zrotation
											JOINT BN_hair01_02
											{
												OFFSET 6.002075 -2.962952 -3.121264
												CHANNELS 3 Xrotation Yrotation Zrotation
												End Site
												{
													OFFSET 5.917702 3.813591 -2.232396
												}
											}
										}
										JOINT BN_Eyebrow_R
										{
											OFFSET 11.795959 -0.430496 4.449781
											CHANNELS 3 Xrotation Yrotation Zrotation
											JOINT Bip01_Xtra06Nub
											{
												OFFSET 2.936661 -0.262573 3.246701
												CHANNELS 3 Xrotation Yrotation Zrotation
												End Site
												{
													OFFSET 2.768745 0.208199 3.394807
												}
											}
										}
										JOINT BN_Eyebrow_L
										{
											OFFSET 11.586395 -0.445618 -4.441728
											CHANNELS 3 Xrotation Yrotation Zrotation
											JOINT Bip01_Xtra05Nub
											{
												OFFSET 3.244698 -0.349442 -4.416700
												CHANNELS 3 Xrotation Yrotation Zrotation
												End Site
												{
													OFFSET 3.053162 0.072495 -4.564033
												}
											}
										}
										JOINT Bip01_R_Ear_01
										{
											OFFSET 7.142960 7.567184 4.311657
											CHANNELS 3 Xrotation Yrotation Zrotation
											JOINT Bip01_Xtra04Nub
											{
												OFFSET 9.464531 9.264214 1.682953
												CHANNELS 3 Xrotation Yrotation Zrotation
												End Site
												{
													OFFSET 8.448181 10.159340 1.910823
												}
											}
										}
										JOINT Bip01__L_Ear_01
										{
											OFFSET 7.214943 7.717056 -4.356771
											CHANNELS 3 Xrotation Yrotation Zrotation
											JOINT Bip01_Xtra03Nub
											{
												OFFSET 9.230225 8.944366 -2.322746
												CHANNELS 3 Xrotation Yrotation Zrotation
												End Site
												{
													OFFSET 8.170288 9.841324 -2.643566
												}
											}
										}
										JOINT Bip01_Jaw
										{
											OFFSET 9.196068 -4.110695 -0.000013
											CHANNELS 3 Xrotation Yrotation Zrotation
											JOINT Bip01_Ponytail1Nub
											{
												OFFSET 10.976463 -21.082108 -0.000053
												CHANNELS 3 Xrotation Yrotation Zrotation
												End Site
												{
													OFFSET 11.247093 -20.938980 0.000113
												}
											}
										}
										JOINT Bip01_HeadNub
										{
											OFFSET 29.954575 -18.249489 -0.000063
											CHANNELS 3 Xrotation Yrotation Zrotation
											End Site
											{
												OFFSET -9.198448 -13.366348 0.000168
											}
										}
									}
								}
							}
						}
					}
				}
			}
		}
	}
}
MOTION
Frames: 4
Frame Time: 0.033333
0.000000 0.000000 0.000000 0.000008 0.000000 -0.000000 -0.000000 0.000000 -0.000000 0.168761 -0.120828 -35.624860 -1.554453 -2.818646 -1.087850 1.978581 4.878761 20.786392 -0.265266 1.245044 10.282899 -0.097391 -0.632578 -10.454626 -4.154353 -9.285839 -25.963921 2.710578 -6.589872 22.480891 1.749383 2.656411 10.787569 6.484268 7.990363 -11.977525 8.737875 -3.407199 -48.813965 -10.533881 -9.100038 75.333032 7.288763 -6.980466 -59.702253 0.095352 0.037227 -0.459991 0.005703 0.010010 -0.001139 -10.562935 -9.291692 -25.384777 -8.636437 3.304504 -48.089040 9.976373 7.229570 65.519259 -6.407482 11.130113 -77.199443 -0.462770 -0.173830 -2.218644 0.008516 0.000079 0.038649 2.699097 -0.659845 -11.690058 -3.195377 0.278208 37.469875 1.059956 -0.149891 -1.004128 1.479326 0.276399 -11.619569 0.000077 -0.000112 -0.000056 -0.000051 -0.014958 0.015044 1.881398 1.572115 1.462643 6.612638 11.512006 -15.509073 4.975555 5.266130 -6.968486 -2.546242 0.487071 11.576020 2.405716 0.211967 -4.147134 -1.389499 -3.921048 55.081842 -0.000089 -0.003524 0.085554 1.724726 1.732525 4.006746 3.165826 6.052538 -13.867756 -1.353293 3.861789 5.945719 -0.793871 0.152316 -0.479416 -0.804180 0.123492 -0.482657 2.531721 0.059997 -18.055924 -6.146895 -1.616069 56.253240 -0.001321 -0.033171 -0.809591 -3.181741 -0.586890 -6.990413 -0.640605 -8.322825 -41.607142 -1.098455 6.839209 2.000594 0.028231 0.072122 2.451906 -0.000915 0.100591 2.451939 0.605824 -0.217844 3.748307 -0.153435 0.947456 -3.025932 1.233421 -0.511319 2.246994 -1.956600 0.395773 14.003076 4.113160 0.702465 -0.435886 1.437056 0.280253 -10.809807 0.383423 -1.477653 -9.944883 -1.711838 -0.632709 -22.036188 -0.000124 -0.000389 -40.728343 -1.426582 1.763863 30.652666 -0.000119 -0.000116 -39.723837 -0.000011 -0.000019 1.314169 5.519493 -2.043345 1.412527 -0.000198 -0.000146 -61.781281 -23.901928 -11.933152 -2.566271 34.949197 16.671906 -5.206570 -0.000109 -0.000124 -41.694845 0.000033 0.000035 -0.000048 14.071010 25.942824 12.595424 -1.988883 -0.893570 -0.241926 0.000061 -0.000077 0.000044 0.018850 -0.023315 11.778699 0.000068 -0.000062 0.000007 0.023225 -0.032290 11.715983 0.885426 1.335102 -11.105672 0.039067 0.011713 11.754836 -1.290223 -1.929238 -11.270273 0.038985 0.011461 11.744860 -0.319960 1.625507 1.311380 -0.003508 -0.040887 11.750666 0.000052 -0.000036 11.750660 
0.000000 0.000000 0.000000 0.000008 0.000000 -0.000000 -0.000000 0.000000 -0.000000 0.167828 -0.120162 -35.624853 -1.543200 -2.879281 -1.089646 1.281950 4.295354 19.768082 -0.322799 1.124145 14.264804 0.082379 0.952373 -6.689930 -3.814285 -7.007762 -30.384762 1.099098 -10.363152 4.210078 1.743617 2.716716 10.787807 6.436371 7.820907 -12.537508 8.541293 -3.211080 -47.419889 -10.468136 -8.802116 73.798691 7.185805 -6.417034 -56.982936 0.095352 0.037225 -0.459991 0.005703 0.010010 -0.001141 -10.402364 -9.374382 -24.452677 -8.737647 3.406651 -48.810868 9.998506 7.286193 65.824083 -6.248432 10.553327 -74.619475 -0.462769 -0.173828 -2.218645 0.008516 0.000077 0.038652 2.705752 -0.661806 -11.689980 -3.181336 0.277673 37.470711 0.897652 -0.150674 -1.000300 1.484466 0.276023 -11.619593 0.000078 -0.000112 -0.000057 -0.000052 -0.014958 0.015041 1.881337 1.572098 1.462667 6.612639 11.512010 -15.509071 4.975560 5.266131 -6.968489 -2.548385 0.480240 11.575401 2.410727 0.190586 -4.317506 -1.403244 -3.891709 55.150622 0.000122 0.003045 -0.074699 1.712924 1.733089 4.259392 3.284872 6.000655 -14.891735 -1.353257 3.861774 5.945744 -0.793899 0.152315 -0.479417 -0.804180 0.123493 -0.482656 2.530053 0.038504 -17.881399 -6.154961 -1.598684 55.854203 -0.000280 -0.007832 -0.191344 -3.226026 -0.583743 -7.583506 -0.780831 -8.222878 -42.776290 -1.098437 6.839208 2.000584 0.028258 0.072122 2.451909 -0.000915 0.100592 2.451937 0.605818 -0.217844 3.748304 -0.153439 0.947456 -3.025938 1.233421 -0.511317 2.246985 -1.955614 0.394995 14.001885 3.326017 1.327513 -1.158800 3.994834 0.073841 -5.945109 -1.788399 -2.268314 -14.265840 -1.688806 -0.656564 -22.045346 -0.000124 -0.000389 -40.728336 -1.442759 1.778619 30.662505 -0.000119 -0.000116 -39.722871 -0.000011 -0.000019 1.314172 5.519493 -2.043345 1.412527 -0.000199 -0.000146 -61.788521 -23.901924 -11.933152 -2.566273 34.949197 16.671901 -5.206574 -0.000109 -0.000124 -41.693814 0.000033 0.000035 -0.000046 14.021899 25.481120 12.125014 0.562408 -0.541323 2.474016 0.000065 -0.000073 0.000045 0.018919 -0.023303 11.778779 0.000073 -0.000043 0.000003 0.023239 -0.032282 11.715970 0.885426 1.335102 -11.105666 0.039067 0.011713 11.754837 -1.290221 -1.929238 -11.270266 0.038981 0.011461 11.744855 -0.435498 2.512168 0.273307 -0.003490 -0.040908 11.750669 0.000052 -0.000036 11.750667 
0.000000 0.000000 0.000000 0.000008 0.000000 -0.000000 -0.000000 0.000000 -0.000000 0.167206 -0.119718 -35.624863 -1.416925 -2.856330 -1.159743 0.558190 3.733602 18.729328 -0.347423 0.973355 17.881534 0.010054 1.671365 -2.082799 -2.779266 -4.771706 -31.997363 -1.907285 -11.693625 -12.197354 1.617842 2.693488 10.864861 6.405154 7.663602 -13.155818 8.334357 -3.014534 -45.986561 -10.392231 -8.497815 72.222509 7.064358 -5.898001 -54.349229 0.095351 0.037226 -0.459988 0.005704 0.010010 -0.001142 -10.256338 -9.447453 -23.615929 -8.829693 3.501812 -49.475343 10.022214 7.347844 66.155300 -6.061580 9.978519 -72.017030 -0.462769 -0.173829 -2.218643 0.008516 0.000080 0.038651 2.709015 -0.662769 -11.689931 -3.167160 0.277121 37.471541 0.733739 -0.151476 -0.996433 1.489656 0.275643 -11.619622 0.000078 -0.000112 -0.000057 -0.000052 -0.014958 0.015041 1.881458 1.572122 1.462631 6.612640 11.512006 -15.509075 4.975561 5.266135 -6.968486 -2.530579 0.463481 11.569787 2.397972 0.185835 -4.466868 -1.408673 -3.864280 55.170525 0.000280 0.007619 -0.186289 1.703068 1.733760 4.463001 3.415255 5.941494 -16.026318 -1.353252 3.861716 5.945722 -0.793926 0.152315 -0.479421 -0.804181 0.123492 -0.482656 2.511113 0.032197 -17.710679 -6.152586 -1.581992 55.460405 0.000516 0.018694 0.455668 -3.271057 -0.580191 -8.191473 -0.923806 -8.116749 -43.993344 -1.098436 6.839209 2.000587 0.028286 0.072122 2.451909 -0.000916 0.100590 2.451939 0.605802 -0.217864 3.748265 -0.153433 0.947455 -3.025937 1.233426 -0.511315 2.246987 -1.937103 0.380395 13.995891 2.557052 2.000111 -1.891569 6.046501 -0.024206 -4.415650 -2.696694 -2.596898 -16.094046 -1.674863 -0.657467 -22.033015 -0.000124 -0.000389 -40.728343 -1.444719 1.780405 30.651772 -0.000119 -0.000116 -39.721880 -0.000011 -0.000019 1.314168 5.519493 -2.043345 1.412527 -0.000199 -0.000146 -61.778795 -23.901923 -11.933153 -2.566269 34.949197 16.671904 -5.206573 -0.000109 -0.000125 -41.692769 0.000033 0.000035 -0.000046 13.968280 25.015218 11.651336 3.119214 -0.064054 5.197970 0.000066 -0.000075 0.000044 0.018783 -0.023345 11.778611 0.000092 -0.000016 0.000004 0.023253 -0.032278 11.715943 0.885427 1.335101 -11.105666 0.039081 0.011736 11.754837 -1.290222 -1.929240 -11.270273 0.038985 0.011460 11.744856 -0.376476 2.882928 -0.304318 -0.003473 -0.040929 11.750666 0.000052 -0.000036 11.750665 
0.000000 0.000000 0.000000 0.000008 0.000000 -0.000000 -0.000000 0.000000 -0.000000 0.165837 -0.118729 -35.624870 -1.222346 -2.782717 -1.270645 -0.325868 2.954815 16.821567 -0.315871 0.757954 20.899177 -0.142821 1.646022 3.327239 -1.196143 -2.165514 -30.656314 -4.332264 -10.505151 -26.242459 1.419589 2.618926 10.987440 6.392281 7.522846 -13.820357 8.122908 -2.823495 -44.554868 -10.307873 -8.195398 70.645582 6.933628 -5.439666 -51.888390 0.095358 0.037228 -0.460015 0.005702 0.010009 -0.001141 -10.131052 -9.509337 -22.902097 -8.910932 3.587665 -50.068480 10.047922 7.415970 66.520428 -5.850690 9.415021 -69.437219 -0.462769 -0.173829 -2.218643 0.008517 0.000080 0.038648 2.709183 -0.662818 -11.689932 -3.152814 0.276593 37.472381 0.568220 -0.152285 -0.992563 1.489830 0.275628 -11.619619 0.000078 -0.000112 -0.000056 -0.000052 -0.014958 0.015044 1.881457 1.572122 1.462634 6.612633 11.512011 -15.509073 4.975557 5.266135 -6.968488 -2.494088 0.437537 11.559388 2.368512 0.196913 -4.594179 -1.406632 -3.838728 55.141968 0.000384 0.010511 -0.256851 1.694864 1.734464 4.626616 3.553741 5.875947 -17.245949 -1.353242 3.861694 5.945760 -0.793981 0.152315 -0.479424 -0.804180 0.123491 -0.482656 2.476001 0.039949 -17.543160 -6.140627 -1.565776 55.071614 0.001027 0.046265 1.127929 -3.316469 -0.576316 -8.810719 -1.069232 -8.004263 -45.259224 -1.098437 6.839210 2.000591 0.028341 0.072123 2.451905 -0.000916 0.100591 2.451941 0.605798 -0.217862 3.748268 -0.153435 0.947455 -3.025940 1.233422 -0.511316 2.246989 -1.902269 0.352922 13.985325 1.809175 2.720646 -2.634250 6.919698 -0.041805 -4.725126 -0.784941 -2.055249 -13.285978 -1.669894 -0.636798 -22.000128 -0.000124 -0.000389 -40.728343 -1.433248 1.769943 30.621825 -0.000119 -0.000115 -39.710788 -0.000011 -0.000019 1.314165 5.519494 -2.043345 1.412525 -0.000198 -0.000146 -61.768823 -23.901928 -11.933153 -2.566269 34.949224 16.671894 -5.206589 -0.000109 -0.000124 -41.681902 0.000033 0.000035 -0.000048 13.858671 23.855795 10.396796 5.395076 0.853138 7.043431 0.000066 -0.000076 0.000048 0.018784 -0.023331 11.778618 0.000055 -0.000087 0.000009 0.023282 -0.032273 11.715894 0.885426 1.335102 -11.105669 0.039093 0.011760 11.754842 -1.290221 -1.929239 -11.270268 0.038986 0.011461 11.744854 0.099629 2.126555 0.086582 -0.003437 -0.040971 11.750667 0.000052 -0.000036 11.750659 
